999
dxfrw 0.6.3
  0
SECTION
  2
HEADER
  9
$ACADVER
  1
AC1021
  9
$DWGCODEPAGE
  3
ANSI_1252
  9
$INSBASE
 10
0
 20
0
 30
0
  9
$EXTMIN
 10
1e+20
 20
1e+20
 30
1e+20
  9
$EXTMAX
 10
-1e+20
 20
-1e+20
 30
-1e+20
  9
$LIMMIN
 10
0
 20
0
  9
$LIMMAX
 10
420
 20
297
  9
$ORTHOMODE
 70
    0
  9
$REGENMODE
 70
    1
  9
$FILLMODE
 70
    1
  9
$QTEXTMODE
 70
    0
  9
$MIRRTEXT
 70
    0
  9
$LTSCALE
 40
1
  9
$ATTMODE
 70
    0
  9
$TEXTSIZE
 40
2.5
  9
$TRACEWID
 40
15.68
  9
$TEXTSTYLE
  7
STANDARD
  9
$CLAYER
  8
0
  9
$CELTYPE
  6
BYLAYER
  9
$CECOLOR
 62
  256
  9
$CELTSCALE
 40
1
  9
$DISPSILH
 70
    0
  9
$DIMSCALE
 40
1
  9
$DIMASZ
 40
2.5
  9
$DIMEXO
 40
0.625
  9
$DIMDLI
 40
3.75
  9
$DIMRND
 40
0
  9
$DIMDLE
 40
0
  9
$DIMEXE
 40
1.25
  9
$DIMTP
 40
0
  9
$DIMTM
 40
0
  9
$DIMTXT
 40
2.5
  9
$DIMCEN
 40
2.5
  9
$DIMTSZ
 40
0
  9
$DIMTOL
 70
    0
  9
$DIMLIM
 70
    0
  9
$DIMTIH
 70
    0
  9
$DIMTOH
 70
    0
  9
$DIMSE1
 70
    0
  9
$DIMSE2
 70
    0
  9
$DIMTAD
 70
    1
  9
$DIMZIN
 70
    8
  9
$DIMBLK
  1

  9
$DIMASO
 70
    1
  9
$DIMSHO
 70
    1
  9
$DIMPOST
  1

  9
$DIMAPOST
  1

  9
$DIMALT
 70
    0
  9
$DIMALTD
 70
    3
  9
$DIMALTF
 40
0.03937
  9
$DIMLFAC
 40
1
  9
$DIMTOFL
 70
    1
  9
$DIMTVP
 40
0
  9
$DIMTIX
 70
    0
  9
$DIMSOXD
 70
    0
  9
$DIMSAH
 70
    0
  9
$DIMBLK1
  1

  9
$DIMBLK2
  1

  9
$DIMSTYLE
  2
STANDARD
  9
$DIMCLRD
 70
    0
  9
$DIMCLRE
 70
    0
  9
$DIMCLRT
 70
    0
  9
$DIMTFAC
 40
1
  9
$DIMGAP
 40
0.625
  9
$DIMJUST
 70
    0
  9
$DIMSD1
 70
    0
  9
$DIMSD2
 70
    0
  9
$DIMTOLJ
 70
    0
  9
$DIMTZIN
 70
    8
  9
$DIMALTZ
 70
    0
  9
$DIMALTTZ
 70
    0
  9
$DIMUPT
 70
    0
  9
$DIMDEC
 70
    2
  9
$DIMTDEC
 70
    2
  9
$DIMALTU
 70
    2
  9
$DIMALTTD
 70
    3
  9
$DIMTXSTY
  7
STANDARD
  9
$DIMAUNIT
 70
    0
  9
$DIMADEC
 70
    0
  9
$DIMALTRND
 40
0
  9
$DIMAZIN
 70
    0
  9
$DIMDSEP
 70
   44
  9
$DIMATFIT
 70
    3
  9
$DIMFRAC
 70
    0
  9
$DIMLDRBLK
  1
STANDARD
  9
$DIMLUNIT
 70
    2
  9
$DIMLWD
 70
   -2
  9
$DIMLWE
 70
   -2
  9
$DIMTMOVE
 70
    0
  9
$DIMFXL
 40
1
  9
$DIMFXLON
 70
    0
  9
$DIMJOGANG
 40
0.7854
  9
$DIMTFILL
 70
    0
  9
$DIMTFILLCLR
 70
    0
  9
$DIMARCSYM
 70
    0
  9
$DIMLTYPE
  6

  9
$DIMLTEX1
  6

  9
$DIMLTEX2
  6

  9
$LUNITS
 70
    2
  9
$LUPREC
 70
    4
  9
$SKETCHINC
 40
1
  9
$FILLETRAD
 40
0
  9
$AUNITS
 70
    0
  9
$AUPREC
 70
    2
  9
$MENU
  1
.
  9
$ELEVATION
 40
0
  9
$PELEVATION
 40
0
  9
$THICKNESS
 40
0
  9
$LIMCHECK
 70
    0
  9
$CHAMFERA
 40
0
  9
$CHAMFERB
 40
0
  9
$CHAMFERC
 40
0
  9
$CHAMFERD
 40
0
  9
$SKPOLY
 70
    0
  9
$USRTIMER
 70
    1
  9
$ANGBASE
 50
0
  9
$ANGDIR
 70
    0
  9
$PDMODE
 70
   34
  9
$PDSIZE
 40
0
  9
$PLINEWID
 40
0
  9
$SPLFRAME
 70
    0
  9
$SPLINETYPE
 70
    2
  9
$SPLINESEGS
 70
    8
  9
$HANDSEED
  5
20000
  9
$SURFTAB1
 70
    6
  9
$SURFTAB2
 70
    6
  9
$SURFTYPE
 70
    6
  9
$SURFU
 70
    6
  9
$SURFV
 70
    6
  9
$UCSBASE
  2

  9
$UCSNAME
  2

  9
$UCSORG
 10
0
 20
0
 30
0
  9
$UCSXDIR
 10
1
 20
0
 30
0
  9
$UCSYDIR
 10
0
 20
1
 30
0
  9
$UCSORTHOREF
  2

  9
$UCSORTHOVIEW
 70
    0
  9
$UCSORGTOP
 10
0
 20
0
 30
0
  9
$UCSORGBOTTOM
 10
0
 20
0
 30
0
  9
$UCSORGLEFT
 10
0
 20
0
 30
0
  9
$UCSORGRIGHT
 10
0
 20
0
 30
0
  9
$UCSORGFRONT
 10
0
 20
0
 30
0
  9
$UCSORGBACK
 10
0
 20
0
 30
0
  9
$PUCSBASE
  2

  9
$PUCSNAME
  2

  9
$PUCSORG
 10
0
 20
0
 30
0
  9
$PUCSXDIR
 10
1
 20
0
 30
0
  9
$PUCSYDIR
 10
0
 20
1
 30
0
  9
$PUCSORTHOREF
  2

  9
$PUCSORTHOVIEW
 70
    0
  9
$PUCSORGTOP
 10
0
 20
0
 30
0
  9
$PUCSORGBOTTOM
 10
0
 20
0
 30
0
  9
$PUCSORGLEFT
 10
0
 20
0
 30
0
  9
$PUCSORGRIGHT
 10
0
 20
0
 30
0
  9
$PUCSORGFRONT
 10
0
 20
0
 30
0
  9
$PUCSORGBACK
 10
0
 20
0
 30
0
  9
$USERI1
 70
    0
  9
$USERI2
 70
    0
  9
$USERI3
 70
    0
  9
$USERI4
 70
    0
  9
$USERI5
 70
    0
  9
$USERR1
 40
0
  9
$USERR2
 40
0
  9
$USERR3
 40
0
  9
$USERR4
 40
0
  9
$USERR5
 40
0
  9
$WORLDVIEW
 70
    1
  9
$SHADEDGE
 70
    3
  9
$SHADEDIF
 70
   70
  9
$TILEMODE
 70
    1
  9
$MAXACTVP
 70
   64
  9
$PINSBASE
 10
0
 20
0
 30
0
  9
$PLIMCHECK
 70
    0
  9
$PEXTMIN
 10
0
 20
0
 30
0
  9
$PEXTMAX
 10
0
 20
0
 30
0
  9
$PLIMMIN
 10
0
 20
0
  9
$PLIMMAX
 10
297
 20
210
  9
$UNITMODE
 70
    0
  9
$VISRETAIN
 70
    1
  9
$PLINEGEN
 70
    0
  9
$PSLTSCALE
 70
    1
  9
$TREEDEPTH
 70
 3020
  9
$CMLSTYLE
  2
Standard
  9
$CMLJUST
 70
    0
  9
$CMLSCALE
 40
20
  9
$PROXYGRAPHICS
 70
    1
  9
$MEASUREMENT
 70
    1
  9
$CELWEIGHT
370
   -1
  9
$ENDCAPS
280
    0
  9
$JOINSTYLE
280
    0
  9
$LWDISPLAY
290
    0
  9
$INSUNITS
 70
    0
  9
$HYPERLINKBASE
  1

  9
$STYLESHEET
  1

  9
$XEDIT
290
    1
  9
$CEPSNTYPE
380
    0
  9
$PSTYLEMODE
290
    1
  9
$EXTNAMES
290
    1
  9
$PSVPSCALE
 40
0
  9
$OLESTARTUP
290
    0
  9
$SORTENTS
280
  127
  9
$INDEXCTL
280
    0
  9
$HIDETEXT
280
    1
  9
$XCLIPFRAME
290
    0
  9
$HALOGAP
280
    0
  9
$OBSCOLOR
 70
  257
  9
$OBSLTYPE
280
    0
  9
$INTERSECTIONDISPLAY
280
    0
  9
$INTERSECTIONCOLOR
 70
  257
  9
$DIMASSOC
280
    1
  9
$PROJECTNAME
  1

  9
$CAMERADISPLAY
290
    0
  9
$LENSLENGTH
 40
50
  9
$CAMERAHEIGHT
 40
0
  9
$STEPSPERSEC
 40
2
  9
$STEPSIZE
 40
50
  9
$3DDWFPREC
 40
2
  9
$PSOLWIDTH
 40
5
  9
$PSOLHEIGHT
 40
80
  9
$LOFTANG1
 40
1.570796326794897
  9
$LOFTANG2
 40
1.570796326794897
  9
$LOFTMAG1
 40
0
  9
$LOFTMAG2
 40
0
  9
$LOFTPARAM
 70
    7
  9
$LOFTNORMALS
280
    1
  9
$LATITUDE
 40
1
  9
$LONGITUDE
 40
1
  9
$NORTHDIRECTION
 40
0
  9
$TIMEZONE
 70
-8000
  9
$LIGHTGLYPHDISPLAY
280
    1
  9
$TILEMODELIGHTSYNCH
280
    1
  9
$SOLIDHIST
280
    1
  9
$SHOWHIST
280
    1
  9
$DWFFRAME
280
    2
  9
$DGNFRAME
280
    0
  9
$REALWORLDSCALE
290
    1
  9
$INTERFERECOLOR
 62
    1
  9
$CSHADOW
280
    0
  9
$SHADOWPLANELOCATION
 40
0
  0
ENDSEC
  0
SECTION
  2
CLASSES
  0
ENDSEC
  0
SECTION
  2
TABLES
  0
TABLE
  2
VPORT
  5
8
330
0
100
AcDbSymbolTable
 70
    1
  0
VPORT
  5
31
330
2
100
AcDbSymbolTableRecord
100
AcDbViewportTableRecord
  2
*ACTIVE
 70
    0
 10
0
 20
0
 11
1
 21
1
 12
0.651828
 22
-0.16
 13
0
 23
0
 14
10
 24
10
 15
10
 25
10
 16
0
 26
0
 36
1
 17
0
 27
0
 37
0
 40
5.13732
 41
2.4426877
 42
50
 43
0
 44
0
 50
0
 51
0
 71
    0
 72
  100
 73
    1
 74
    3
 75
    0
 76
    0
 77
    0
 78
    0
281
    0
 65
    1
110
0
120
0
130
0
111
1
121
0
131
0
112
0
122
1
132
0
 79
    0
146
0
348
10020
 60
    7
 61
    5
292
1
282
    1
141
0
142
0
 63
  250
421
3358443
  0
ENDTAB
  0
TABLE
  2
LTYPE
  5
5
330
0
100
AcDbSymbolTable
 70
    4
  0
LTYPE
  5
14
330
5
100
AcDbSymbolTableRecord
100
AcDbLinetypeTableRecord
  2
ByBlock
 70
    0
  3

 72
   65
 73
    0
 40
0
  0
LTYPE
  5
15
330
5
100
AcDbSymbolTableRecord
100
AcDbLinetypeTableRecord
  2
ByLayer
 70
    0
  3

 72
   65
 73
    0
 40
0
  0
LTYPE
  5
16
330
5
100
AcDbSymbolTableRecord
100
AcDbLinetypeTableRecord
  2
Continuous
 70
    0
  3
Solid line
 72
   65
 73
    0
 40
0
  0
LTYPE
  5
32
330
5
100
AcDbSymbolTableRecord
100
AcDbLinetypeTableRecord
  2
DASHED
 70
    0
  3

 72
   65
 73
    2
 40
3
 49
1
 74
    0
 49
-2
 74
    0
  0
LTYPE
  5
33
330
5
100
AcDbSymbolTableRecord
100
AcDbLinetypeTableRecord
  2
DASHED
 70
    0
  3

 72
   65
 73
    2
 40
2
 49
1
 74
    0
 49
-1
 74
    0
  0
LTYPE
  5
34
330
5
100
AcDbSymbolTableRecord
100
AcDbLinetypeTableRecord
  2
DASHEDX2
 70
    0
  3

 72
   65
 73
    2
 40
3
 49
2
 74
    0
 49
-1
 74
    0
  0
LTYPE
  5
35
330
5
100
AcDbSymbolTableRecord
100
AcDbLinetypeTableRecord
  2
DASHDOT
 70
    0
  3

 72
   65
 73
    4
 40
3
 49
1
 74
    0
 49
-1
 74
    0
 49
0
 74
    0
 49
-1
 74
    0
  0
LTYPE
  5
36
330
5
100
AcDbSymbolTableRecord
100
AcDbLinetypeTableRecord
  2
DIVIDE
 70
    0
  3

 72
   65
 73
    6
 40
4
 49
1
 74
    0
 49
-1
 74
    0
 49
0
 74
    0
 49
-1
 74
    0
 49
0
 74
    0
 49
-1
 74
    0
  0
LTYPE
  5
37
330
5
100
AcDbSymbolTableRecord
100
AcDbLinetypeTableRecord
  2
DOT
 70
    0
  3

 72
   65
 73
    2
 40
1
 49
1
 74
    0
 49
0
 74
    0
  0
ENDTAB
  0
TABLE
  2
LAYER
  5
2
330
0
100
AcDbSymbolTable
 70
    1
  0
LAYER
  5
38
330
2
100
AcDbSymbolTableRecord
100
AcDbLayerTableRecord
  2
dimensions
 70
    0
 62
    7
  6
CONTINUOUS
370
   -3
390
F
  0
LAYER
  5
39
330
2
100
AcDbSymbolTableRecord
100
AcDbLayerTableRecord
  2
text
 70
    0
 62
    7
  6
CONTINUOUS
370
   -3
390
F
  0
LAYER
  5
3A
330
2
100
AcDbSymbolTableRecord
100
AcDbLayerTableRecord
  2
s001-#def-active-grp
 70
    0
 62
    7
  6
CONTINUOUS
370
   -3
390
F
  0
LAYER
  5
3B
330
2
100
AcDbSymbolTableRecord
100
AcDbLayerTableRecord
  2
s100-@dxf
 70
    0
 62
    7
  6
CONTINUOUS
370
   -3
390
F
  0
LAYER
  5
10
330
2
100
AcDbSymbolTableRecord
100
AcDbLayerTableRecord
  2
0
 70
    0
 62
    7
  6
CONTINUOUS
370
   -3
390
F
  0
ENDTAB
  0
TABLE
  2
STYLE
  5
3
330
0
100
AcDbSymbolTable
 70
    3
  0
STYLE
  5
3C
330
2
100
AcDbSymbolTableRecord
100
AcDbTextStyleTableRecord
  2
unicode
 70
    0
 40
0
 41
1
 50
0
 71
    0
 42
1
  3
unicode
  4

  0
STYLE
  5
3D
330
2
100
AcDbSymbolTableRecord
100
AcDbTextStyleTableRecord
  2
Standard
 70
    0
 40
0
 41
1
 50
0
 71
    0
 42
1
  3
txt
  4

  0
ENDTAB
  0
TABLE
  2
VIEW
  5
6
330
0
100
AcDbSymbolTable
 70
    0
  0
ENDTAB
  0
TABLE
  2
UCS
  5
7
330
0
100
AcDbSymbolTable
 70
    0
  0
ENDTAB
  0
TABLE
  2
APPID
  5
9
330
0
100
AcDbSymbolTable
 70
    1
  0
APPID
  5
12
330
9
100
AcDbSymbolTableRecord
100
AcDbRegAppTableRecord
  2
ACAD
 70
    0
  0
ENDTAB
  0
TABLE
  2
DIMSTYLE
  5
A
330
0
100
AcDbSymbolTable
 70
    1
100
AcDbDimStyleTable
 71
    1
  0
DIMSTYLE
105
3E
330
A
100
AcDbSymbolTableRecord
100
AcDbDimStyleTableRecord
  2
Standard
 70
    0
 40
1
 41
2.5
 42
0.625
 43
3.75
 44
1.25
 45
0
 46
0
 47
0
 48
0
140
2.5
141
2.5
142
0
143
0.03937007874015748
144
1
145
0
146
1
147
0.625
148
0
 71
    0
 72
    0
 73
    0
 74
    0
 75
    0
 76
    0
 77
    1
 78
    8
 79
    0
170
    0
171
    3
172
    1
173
    0
174
    0
175
    0
176
    0
177
    0
178
    0
179
    0
271
    2
272
    2
273
    2
274
    3
275
    0
276
    0
277
    2
278
   44
279
    0
280
    0
281
    0
282
    0
283
    0
284
    8
285
    0
286
    0
288
    0
289
    3
341

371
   -2
372
   -2
  0
ENDTAB
  0
TABLE
  2
BLOCK_RECORD
  5
1
330
0
100
AcDbSymbolTable
 70
    2
  0
BLOCK_RECORD
  5
1F
330
1
100
AcDbSymbolTableRecord
100
AcDbBlockTableRecord
  2
*Model_Space
 70
    0
280
    1
281
    0
  0
BLOCK_RECORD
  5
1E
330
1
100
AcDbSymbolTableRecord
100
AcDbBlockTableRecord
  2
*Paper_Space
 70
    0
280
    1
281
    0
  0
ENDTAB
  0
ENDSEC
  0
SECTION
  2
BLOCKS
  0
BLOCK
  5
20
330
1F
100
AcDbEntity
  8
0
100
AcDbBlockBegin
  2
*Model_Space
 70
    0
 10
0
 20
0
 30
0
  3
*Model_Space
  1

  0
ENDBLK
  5
21
330
1F
100
AcDbEntity
  8
0
100
AcDbBlockEnd
  0
BLOCK
  5
1C
330
1B
100
AcDbEntity
  8
0
100
AcDbBlockBegin
  2
*Paper_Space
 70
    0
 10
0
 20
0
 30
0
  3
*Paper_Space
  1

  0
ENDBLK
  5
1D
330
1F
100
AcDbEntity
  8
0
100
AcDbBlockEnd
  0
ENDSEC
  0
SECTION
  2
ENTITIES
  0
POLYLINE
  5
3F
100
AcDbEntity
  8
s100-@dxf
  6
CONTINUOUS
 62
    7
420
    0
370
   30
100
AcDb2dPolyline
 10
0
 20
0
 30
0
 70
    0
  0
VERTEX
  5
40
100
AcDbEntity
  8
s100-@dxf
  6
CONTINUOUS
 62
    7
420
    0
370
   30
100
AcDbVertex
100
AcDb2dVertex
 10
-89.29617181061315
 20
47.55413459178368
 30
0
  0
VERTEX
  5
41
100
AcDbEntity
  8
s100-@dxf
  6
CONTINUOUS
 62
    7
420
    0
370
   30
100
AcDbVertex
100
AcDb2dVertex
 10
-89.29617181061315
 20
-8.445878721816321
 30
0
  0
VERTEX
  5
42
100
AcDbEntity
  8
s100-@dxf
  6
CONTINUOUS
 62
    7
420
    0
370
   30
100
AcDbVertex
100
AcDb2dVertex
 10
-7.29672029391314
 20
-8.445878721816321
 30
0
  0
VERTEX
  5
43
100
AcDbEntity
  8
s100-@dxf
  6
CONTINUOUS
 62
    7
420
    0
370
   30
100
AcDbVertex
100
AcDb2dVertex
 10
-7.29672029391314
 20
47.55413459178368
 30
0
  0
VERTEX
  5
44
100
AcDbEntity
  8
s100-@dxf
  6
CONTINUOUS
 62
    7
420
    0
370
   30
100
AcDbVertex
100
AcDb2dVertex
 10
-89.29617181061315
 20
47.55413459178368
 30
0
  0
SEQEND
  5
45
100
AcDbEntity
  8
s100-@dxf
  6
CONTINUOUS
 62
    7
420
    0
370
   30
  0
ARC
  5
46
100
AcDbEntity
  8
s001-#def-active-grp
  6
CONTINUOUS
 62
    7
420
    0
370
   30
100
AcDbCircle
 10
-86.79630381061315
 20
45.05426659178369
 40
0.75
100
AcDbArc
 50
0
 51
90
  0
ARC
  5
47
100
AcDbEntity
  8
s001-#def-active-grp
  6
CONTINUOUS
 62
    7
420
    0
370
   30
100
AcDbCircle
 10
-86.79630381061315
 20
45.05426659178369
 40
0.75
100
AcDbArc
 50
90
 51
180
  0
ARC
  5
48
100
AcDbEntity
  8
s001-#def-active-grp
  6
CONTINUOUS
 62
    7
420
    0
370
   30
100
AcDbCircle
 10
-86.79630381061315
 20
45.05426659178369
 40
0.75
100
AcDbArc
 50
180
 51
-90
  0
ARC
  5
49
100
AcDbEntity
  8
s001-#def-active-grp
  6
CONTINUOUS
 62
    7
420
    0
370
   30
100
AcDbCircle
 10
-86.79630381061315
 20
45.05426659178369
 40
0.75
100
AcDbArc
 50
-90
 51
0
  0
ARC
  5
4A
100
AcDbEntity
  8
s001-#def-active-grp
  6
CONTINUOUS
 62
    7
420
    0
370
   30
100
AcDbCircle
 10
-72.79607764011314
 20
-0.4458947218163161
 40
0.75
100
AcDbArc
 50
0
 51
90
  0
ARC
  5
4B
100
AcDbEntity
  8
s001-#def-active-grp
  6
CONTINUOUS
 62
    7
420
    0
370
   30
100
AcDbCircle
 10
-72.79607764011314
 20
-0.4458947218163161
 40
0.75
100
AcDbArc
 50
90
 51
180
  0
ARC
  5
4C
100
AcDbEntity
  8
s001-#def-active-grp
  6
CONTINUOUS
 62
    7
420
    0
370
   30
100
AcDbCircle
 10
-72.79607764011314
 20
-0.4458947218163161
 40
0.75
100
AcDbArc
 50
180
 51
-90
  0
ARC
  5
4D
100
AcDbEntity
  8
s001-#def-active-grp
  6
CONTINUOUS
 62
    7
420
    0
370
   30
100
AcDbCircle
 10
-72.79607764011314
 20
-0.4458947218163161
 40
0.75
100
AcDbArc
 50
-90
 51
0
  0
ARC
  5
4E
100
AcDbEntity
  8
s001-#def-active-grp
  6
CONTINUOUS
 62
    7
420
    0
370
   30
100
AcDbCircle
 10
-23.79617564011314
 20
-0.4458947218163125
 40
0.75
100
AcDbArc
 50
-2.714073328182201e-13
 51
90
  0
ARC
  5
4F
100
AcDbEntity
  8
s001-#def-active-grp
  6
CONTINUOUS
 62
    7
420
    0
370
   30
100
AcDbCircle
 10
-23.79617564011314
 20
-0.4458947218163161
 40
0.75
100
AcDbArc
 50
90
 51
180
  0
ARC
  5
50
100
AcDbEntity
  8
s001-#def-active-grp
  6
CONTINUOUS
 62
    7
420
    0
370
   30
100
AcDbCircle
 10
-23.79617564011314
 20
-0.4458947218163161
 40
0.75
100
AcDbArc
 50
180
 51
-90
  0
ARC
  5
51
100
AcDbEntity
  8
s001-#def-active-grp
  6
CONTINUOUS
 62
    7
420
    0
370
   30
100
AcDbCircle
 10
-23.79617564011314
 20
-0.4458947218163196
 40
0.7499999999999964
100
AcDbArc
 50
-90
 51
2.714073328182201e-13
  0
ARC
  5
52
100
AcDbEntity
  8
s001-#def-active-grp
  6
CONTINUOUS
 62
    7
420
    0
370
   30
100
AcDbCircle
 10
-9.79620381061315
 20
45.05426659178369
 40
0.7500000000000071
100
AcDbArc
 50
0
 51
89.99999999999946
  0
ARC
  5
53
100
AcDbEntity
  8
s001-#def-active-grp
  6
CONTINUOUS
 62
    7
420
    0
370
   30
100
AcDbCircle
 10
-9.796203810613136
 20
45.05426659178369
 40
0.75
100
AcDbArc
 50
90.00000000000054
 51
180
  0
ARC
  5
54
100
AcDbEntity
  8
s001-#def-active-grp
  6
CONTINUOUS
 62
    7
420
    0
370
   30
100
AcDbCircle
 10
-9.796203810613143
 20
45.05426659178369
 40
0.75
100
AcDbArc
 50
180
 51
-90
  0
ARC
  5
55
100
AcDbEntity
  8
s001-#def-active-grp
  6
CONTINUOUS
 62
    7
420
    0
370
   30
100
AcDbCircle
 10
-9.796203810613143
 20
45.05426659178369
 40
0.75
100
AcDbArc
 50
-90
 51
0
  0
ARC
  5
56
100
AcDbEntity
  8
s001-#def-active-grp
  6
CONTINUOUS
 62
    7
420
    0
370
   30
100
AcDbCircle
 10
-48.29644605226314
 20
31.55412127818368
 40
5
100
AcDbArc
 50
0
 51
90
  0
ARC
  5
57
100
AcDbEntity
  8
s001-#def-active-grp
  6
CONTINUOUS
 62
    7
420
    0
370
   30
100
AcDbCircle
 10
-48.29644605226314
 20
31.55412127818368
 40
5
100
AcDbArc
 50
90
 51
180
  0
ARC
  5
58
100
AcDbEntity
  8
s001-#def-active-grp
  6
CONTINUOUS
 62
    7
420
    0
370
   30
100
AcDbCircle
 10
-48.29644605226314
 20
31.55412127818368
 40
5
100
AcDbArc
 50
180
 51
-90
  0
ARC
  5
59
100
AcDbEntity
  8
s001-#def-active-grp
  6
CONTINUOUS
 62
    7
420
    0
370
   30
100
AcDbCircle
 10
-48.29644605226314
 20
31.55412127818368
 40
5
100
AcDbArc
 50
-90
 51
0
  0
ARC
  5
5A
100
AcDbEntity
  8
s001-#def-active-grp
  6
CONTINUOUS
 62
    7
420
    0
370
   30
100
AcDbCircle
 10
-48.29644605226315
 20
31.55412127818368
 40
63.02153942558514
100
AcDbArc
 50
0
 51
89.99999999999999
  0
ARC
  5
5B
100
AcDbEntity
  8
s001-#def-active-grp
  6
CONTINUOUS
 62
    7
420
    0
370
   30
100
AcDbCircle
 10
-48.29644605226312
 20
31.55412127818369
 40
63.02153942558513
100
AcDbArc
 50
90.00000000000001
 51
180
  0
ARC
  5
5C
100
AcDbEntity
  8
s001-#def-active-grp
  6
CONTINUOUS
 62
    7
420
    0
370
   30
100
AcDbCircle
 10
-48.29644605226315
 20
31.55412127818369
 40
63.02153942558513
100
AcDbArc
 50
180
 51
-90.00000000000001
  0
ARC
  5
5D
100
AcDbEntity
  8
s001-#def-active-grp
  6
CONTINUOUS
 62
    7
420
    0
370
   30
100
AcDbCircle
 10
-48.29644605226314
 20
31.55412127818369
 40
63.02153942558514
100
AcDbArc
 50
-90.00000000000001
 51
-1.93796122534284e-14
  0
ARC
  5
5E
100
AcDbEntity
  8
s001-#def-active-grp
  6
CONTINUOUS
 62
    7
420
    0
370
   30
100
AcDbCircle
 10
-48.29644605226314
 20
87.24856090995493
 40
2
100
AcDbArc
 50
-90
 51
4.071109992273301e-13
  0
ARC
  5
5F
100
AcDbEntity
  8
s001-#def-active-grp
  6
CONTINUOUS
 62
    7
420
    0
370
   30
100
AcDbCircle
 10
-48.29644605226314
 20
87.24856090995495
 40
2
100
AcDbArc
 50
180
 51
-90
  0
ARC
  5
60
100
AcDbEntity
  8
s001-#def-active-grp
  6
CONTINUOUS
 62
    7
420
    0
370
   30
100
AcDbCircle
 10
-48.29644605226314
 20
87.24856090995495
 40
2
100
AcDbArc
 50
90
 51
180
  0
ARC
  5
61
100
AcDbEntity
  8
s001-#def-active-grp
  6
CONTINUOUS
 62
    7
420
    0
370
   30
100
AcDbCircle
 10
-48.29644605226314
 20
87.24856090995496
 40
1.999999999999986
100
AcDbArc
 50
-4.071109992273301e-13
 51
90
  0
ARC
  5
62
100
AcDbEntity
  8
s001-#def-active-grp
  6
CONTINUOUS
 62
    7
420
    0
370
   30
100
AcDbCircle
 10
-104.8838781966711
 20
31.55412127818369
 40
2
100
AcDbArc
 50
-90
 51
-4.071109992273301e-13
  0
ARC
  5
63
100
AcDbEntity
  8
s001-#def-active-grp
  6
CONTINUOUS
 62
    7
420
    0
370
   30
100
AcDbCircle
 10
-104.8838781966711
 20
31.55412127818368
 40
2
100
AcDbArc
 50
180
 51
-90
  0
ARC
  5
64
100
AcDbEntity
  8
s001-#def-active-grp
  6
CONTINUOUS
 62
    7
420
    0
370
   30
100
AcDbCircle
 10
-104.8838781966711
 20
31.55412127818368
 40
2
100
AcDbArc
 50
90
 51
180
  0
ARC
  5
65
100
AcDbEntity
  8
s001-#def-active-grp
  6
CONTINUOUS
 62
    7
420
    0
370
   30
100
AcDbCircle
 10
-104.8838781966711
 20
31.55412127818366
 40
2.000000000000014
100
AcDbArc
 50
4.071109992273301e-13
 51
90
  0
ARC
  5
66
100
AcDbEntity
  8
s001-#def-active-grp
  6
CONTINUOUS
 62
    7
420
    0
370
   30
100
AcDbCircle
 10
8.290986092144859
 20
31.55412127818368
 40
2.000000000000004
100
AcDbArc
 50
-89.9999999999999
 51
0
  0
ARC
  5
67
100
AcDbEntity
  8
s001-#def-active-grp
  6
CONTINUOUS
 62
    7
420
    0
370
   30
100
AcDbCircle
 10
8.290986092144866
 20
31.55412127818368
 40
2
100
AcDbArc
 50
180
 51
-90.0000000000001
  0
ARC
  5
68
100
AcDbEntity
  8
s001-#def-active-grp
  6
CONTINUOUS
 62
    7
420
    0
370
   30
100
AcDbCircle
 10
8.290986092144863
 20
31.55412127818368
 40
2
100
AcDbArc
 50
90
 51
180
  0
ARC
  5
69
100
AcDbEntity
  8
s001-#def-active-grp
  6
CONTINUOUS
 62
    7
420
    0
370
   30
100
AcDbCircle
 10
8.290986092144863
 20
31.55412127818368
 40
2
100
AcDbArc
 50
0
 51
90
  0
ARC
  5
6A
100
AcDbEntity
  8
s001-#def-active-grp
  6
CONTINUOUS
 62
    7
420
    0
370
   30
100
AcDbCircle
 10
-48.29644605226314
 20
-24.1403183535876
 40
2
100
AcDbArc
 50
-90
 51
2.035554996136651e-13
  0
ARC
  5
6B
100
AcDbEntity
  8
s001-#def-active-grp
  6
CONTINUOUS
 62
    7
420
    0
370
   30
100
AcDbCircle
 10
-48.29644605226314
 20
-24.14031835358759
 40
2
100
AcDbArc
 50
180
 51
-90
  0
ARC
  5
6C
100
AcDbEntity
  8
s001-#def-active-grp
  6
CONTINUOUS
 62
    7
420
    0
370
   30
100
AcDbCircle
 10
-48.29644605226314
 20
-24.14031835358759
 40
2
100
AcDbArc
 50
90
 51
180
  0
ARC
  5
6D
100
AcDbEntity
  8
s001-#def-active-grp
  6
CONTINUOUS
 62
    7
420
    0
370
   30
100
AcDbCircle
 10
-48.29644605226314
 20
-24.14031835358758
 40
1.999999999999993
100
AcDbArc
 50
-2.035554996136651e-13
 51
90
  0
ARC
  5
6E
100
AcDbEntity
  8
s001-#def-active-grp
  6
CONTINUOUS
 62
    7
420
    0
370
   30
100
AcDbCircle
 10
-68.29644605226315
 20
66.19513742956121
 40
5
100
AcDbArc
 50
-90
 51
0
  0
ARC
  5
6F
100
AcDbEntity
  8
s001-#def-active-grp
  6
CONTINUOUS
 62
    7
420
    0
370
   30
100
AcDbCircle
 10
-68.29644605226315
 20
66.19513742956121
 40
4.999999999999993
100
AcDbArc
 50
180
 51
-90
  0
ARC
  5
70
100
AcDbEntity
  8
s001-#def-active-grp
  6
CONTINUOUS
 62
    7
420
    0
370
   30
100
AcDbCircle
 10
-68.29644605226315
 20
66.19513742956121
 40
5
100
AcDbArc
 50
90
 51
180
  0
ARC
  5
71
100
AcDbEntity
  8
s001-#def-active-grp
  6
CONTINUOUS
 62
    7
420
    0
370
   30
100
AcDbCircle
 10
-68.29644605226315
 20
66.19513742956121
 40
5
100
AcDbArc
 50
0
 51
90
  0
ARC
  5
72
100
AcDbEntity
  8
s001-#def-active-grp
  6
CONTINUOUS
 62
    7
420
    0
370
   30
100
AcDbCircle
 10
-28.29644605226315
 20
66.19513742956121
 40
5
100
AcDbArc
 50
-90
 51
0
  0
ARC
  5
73
100
AcDbEntity
  8
s001-#def-active-grp
  6
CONTINUOUS
 62
    7
420
    0
370
   30
100
AcDbCircle
 10
-28.29644605226315
 20
66.19513742956121
 40
4.999999999999993
100
AcDbArc
 50
180
 51
-90
  0
ARC
  5
74
100
AcDbEntity
  8
s001-#def-active-grp
  6
CONTINUOUS
 62
    7
420
    0
370
   30
100
AcDbCircle
 10
-28.29644605226315
 20
66.19513742956121
 40
5.000000000000004
100
AcDbArc
 50
90
 51
180
  0
ARC
  5
75
100
AcDbEntity
  8
s001-#def-active-grp
  6
CONTINUOUS
 62
    7
420
    0
370
   30
100
AcDbCircle
 10
-28.29644605226315
 20
66.19513742956121
 40
5
100
AcDbArc
 50
0
 51
90
  0
DIMENSION
  5
76
100
AcDbEntity
  8
dimensions
  6
CONTINUOUS
 62
    6
420
16718335
370
   20
100
AcDbDimension
 10
-45.34691960461651
 20
45.02524153278021
 30
0
 11
-45.34691960461651
 21
45.02524153278021
 31
0
 70
   33
  1
77.00
 71
    5
  3
STANDARD
 53
0
210
0
220
0
230
1
 42
77.0001
100
AcDbAlignedDimension
 13
-86.79630381061315
 23
45.05426659178369
 33
0
 14
-9.796203810613143
 24
45.05426659178369
 34
0
  0
DIMENSION
  5
77
100
AcDbEntity
  8
dimensions
  6
CONTINUOUS
 62
    6
420
16718335
370
   20
100
AcDbDimension
 10
-39.3744464687005
 20
-0.1824414625813446
 30
0
 11
-39.3744464687005
 21
-0.1824414625813446
 31
0
 70
   33
  1
49.00
 71
    5
  3
STANDARD
 53
0
210
0
220
0
230
1
 42
48.999902
100
AcDbAlignedDimension
 13
-72.79607764011314
 23
-0.4458947218163161
 33
0
 14
-23.79617564011314
 24
-0.4458947218163161
 34
0
  0
DIMENSION
  5
78
100
AcDbEntity
  8
dimensions
  6
CONTINUOUS
 62
    6
420
16718335
370
   20
100
AcDbDimension
 10
-14.82315999402065
 20
50.79850458090113
 30
0
 11
-14.82315999402065
 21
50.79850458090113
 31
0
 70
   32
  1
2.50
 71
    5
  3
STANDARD
 53
0
210
0
220
0
230
1
 42
2.499868
100
AcDbAlignedDimension
 13
-9.796203810613143
 23
45.05426659178369
 33
0
 14
-14.82315999402065
 24
47.55413459178368
 34
0
 50
90
100
AcDbRotatedDimension
  0
DIMENSION
  5
79
100
AcDbEntity
  8
dimensions
  6
CONTINUOUS
 62
    6
420
16718335
370
   20
100
AcDbDimension
 10
-84.54384256090179
 20
50.47261937841939
 30
0
 11
-84.54384256090179
 21
50.47261937841939
 31
0
 70
   32
  1
2.50
 71
    5
  3
STANDARD
 53
0
210
0
220
0
230
1
 42
2.499868
100
AcDbAlignedDimension
 13
-86.79630381061315
 23
45.05426659178369
 33
0
 14
-84.54384256090179
 24
47.55413459178368
 34
0
 50
90
100
AcDbRotatedDimension
  0
DIMENSION
  5
7A
100
AcDbEntity
  8
dimensions
  6
CONTINUOUS
 62
    6
420
16718335
370
   20
100
AcDbDimension
 10
-23.79617564011314
 20
-4.445886721816315
 30
0
 11
-23.79617564011314
 21
-4.445886721816315
 31
0
 70
   32
  1
8.00
 71
    5
  3
STANDARD
 53
0
210
0
220
0
230
1
 42
-7.999984
100
AcDbAlignedDimension
 13
-23.79617564011314
 23
-0.4458947218163161
 33
0
 14
-23.79617564011314
 24
-8.445878721816321
 34
0
 50
90
100
AcDbRotatedDimension
  0
DIMENSION
  5
7B
100
AcDbEntity
  8
dimensions
  6
CONTINUOUS
 62
    6
420
16718335
370
   20
100
AcDbDimension
 10
-72.79607764011314
 20
-4.445886721816315
 30
0
 11
-72.79607764011314
 21
-4.445886721816315
 31
0
 70
   32
  1
8.00
 71
    5
  3
STANDARD
 53
0
210
0
220
0
230
1
 42
-7.999984
100
AcDbAlignedDimension
 13
-72.79607764011314
 23
-0.4458947218163161
 33
0
 14
-72.79607764011314
 24
-8.445878721816321
 34
0
 50
90
100
AcDbRotatedDimension
  0
DIMENSION
  5
7C
100
AcDbEntity
  8
dimensions
  6
CONTINUOUS
 62
    6
420
16718335
370
   20
100
AcDbDimension
 10
-82.47759211288383
 20
41.35467109363704
 30
0
 11
-82.47759211288383
 21
41.35467109363704
 31
0
 70
   32
  1
2.50
 71
    5
  3
STANDARD
 53
0
210
0
220
0
230
1
 42
-2.499868
100
AcDbAlignedDimension
 13
-86.79630381061315
 23
45.05426659178369
 33
0
 14
-89.29617181061315
 24
41.35467109363704
 34
0
100
AcDbRotatedDimension
  0
DIMENSION
  5
7D
100
AcDbEntity
  8
dimensions
  6
CONTINUOUS
 62
    6
420
16718335
370
   20
100
AcDbDimension
 10
-15.76818573555886
 20
39.87110518492168
 30
0
 11
-15.76818573555886
 21
39.87110518492168
 31
0
 70
   32
  1
2.50
 71
    5
  3
STANDARD
 53
0
210
0
220
0
230
1
 42
2.4994835167
100
AcDbAlignedDimension
 13
-9.796203810613143
 23
45.05426659178369
 33
0
 14
-7.29672029391314
 24
39.87110518492168
 34
0
100
AcDbRotatedDimension
  0
DIMENSION
  5
7E
100
AcDbEntity
  8
dimensions
  6
CONTINUOUS
 62
    6
420
16718335
370
   20
100
AcDbDimension
 10
-15.54644796701314
 20
-0.4458947218163161
 30
0
 11
-15.54644796701314
 21
-0.4458947218163161
 31
0
 70
   32
  1
16.50
 71
    5
  3
STANDARD
 53
0
210
0
220
0
230
1
 42
16.4994553462
100
AcDbAlignedDimension
 13
-23.79617564011314
 23
-0.4458947218163161
 33
0
 14
-7.29672029391314
 24
-0.4458947218163161
 34
0
100
AcDbRotatedDimension
  0
DIMENSION
  5
7F
100
AcDbEntity
  8
dimensions
  6
CONTINUOUS
 62
    6
420
16718335
370
   20
100
AcDbDimension
 10
-80.32274525200536
 20
3.010251650893082
 30
0
 11
-80.32274525200536
 21
3.010251650893082
 31
0
 70
   32
  1
16.50 REF
 71
    5
  3
STANDARD
 53
0
210
0
220
0
230
1
 42
-16.50009417050001
100
AcDbAlignedDimension
 13
-72.79607764011314
 23
-0.4458947218163161
 33
0
 14
-89.29617181061315
 24
3.010251650893082
 34
0
100
AcDbRotatedDimension
  0
DIMENSION
  5
80
100
AcDbEntity
  8
dimensions
  6
CONTINUOUS
 62
    6
420
16718335
370
   20
100
AcDbDimension
 10
-3.341055820875823
 20
20.10886761746628
 30
0
 11
-3.341055820875823
 21
20.10886761746628
 31
0
 70
   33
  1
56.00
 71
    5
  3
STANDARD
 53
0
210
0
220
0
230
1
 42
56.0000133136
100
AcDbAlignedDimension
 13
-7.29672029391314
 23
-8.445878721816321
 33
0
 14
-7.29672029391314
 24
47.55413459178368
 34
0
  0
DIMENSION
  5
81
100
AcDbEntity
  8
dimensions
  6
CONTINUOUS
 62
    6
420
16718335
370
   20
100
AcDbDimension
 10
-48.43598682764792
 20
53.78695589230377
 30
0
 11
-48.43598682764792
 21
53.78695589230377
 31
0
 70
   33
  1
82.00 REF
 71
    5
  3
STANDARD
 53
0
210
0
220
0
230
1
 42
81.99945151670001
100
AcDbAlignedDimension
 13
-89.29617181061315
 23
47.55413459178368
 33
0
 14
-7.29672029391314
 24
47.55413459178368
 34
0
  0
DIMENSION
  5
82
100
AcDbEntity
  8
dimensions
  6
CONTINUOUS
 62
    6
420
16718335
370
   20
100
AcDbDimension
 10
-48.29644605226314
 20
11.55412127818368
 30
0
 11
-48.29644605226314
 21
11.55412127818368
 31
0
 70
   32
  1
40.00
 71
    5
  3
STANDARD
 53
0
210
0
220
0
230
1
 42
-40
100
AcDbAlignedDimension
 13
-48.29644605226314
 23
31.55412127818368
 33
0
 14
-48.29644605226314
 24
-8.445878721816321
 34
0
 50
90
100
AcDbRotatedDimension
  0
DIMENSION
  5
83
100
AcDbEntity
  8
dimensions
  6
CONTINUOUS
 62
    6
420
16718335
370
   20
100
AcDbDimension
 10
-46.30070427545547
 20
87.37900154896198
 30
0
 11
-35.99899500518087
 21
88.05231588035248
 31
0
 70
   35
  1
⌀4.00
 71
    5
  3
STANDARD
 53
0
210
0
220
0
230
1
 42
4
100
AcDbDiametricDimension
 15
-50.29218782907081
 25
87.11812027094791
 35
0
 40
0
  0
DIMENSION
  5
84
100
AcDbEntity
  8
dimensions
  6
CONTINUOUS
 62
    6
420
16718335
370
   20
100
AcDbDimension
 10
-10.39742441693294
 20
44.60589868198587
 30
0
 11
-12.54050572651377
 21
43.00766855280694
 31
0
 70
   35
  1
⌀1.50
 71
    5
  3
STANDARD
 53
0
210
0
220
0
230
1
 42
1.5
100
AcDbDiametricDimension
 15
-9.194983204293351
 25
45.5026345015815
 35
0
 40
0
  0
DIMENSION
  5
85
100
AcDbEntity
  8
dimensions
  6
CONTINUOUS
 62
    6
420
16718335
370
   20
100
AcDbDimension
 10
-43.71253499650285
 20
33.55105879169745
 30
0
 11
-35.94112498610956
 21
36.93660008904639
 31
0
 70
   35
  1
⌀10.00
 71
    5
  3
STANDARD
 53
0
210
0
220
0
230
1
 42
10
100
AcDbDiametricDimension
 15
-52.88035710802343
 25
29.5571837646699
 35
0
 40
0
  0
DIMENSION
  5
86
100
AcDbEntity
  8
dimensions
  6
CONTINUOUS
 62
    6
420
16718335
370
   20
100
AcDbDimension
 10
-48.29644605226315
 20
60.40810114262909
 30
0
 11
-48.29644605226315
 21
60.40810114262909
 31
0
 70
   33
  1
40.00
 71
    5
  3
STANDARD
 53
0
210
0
220
0
230
1
 42
40
100
AcDbAlignedDimension
 13
-68.29644605226315
 23
66.19513742956121
 33
0
 14
-28.29644605226315
 24
66.19513742956121
 34
0
  0
ENDSEC
  0
SECTION
  2
OBJECTS
  0
DICTIONARY
  5
C
330
0
100
AcDbDictionary
281
    1
  3
ACAD_GROUP
350
D
  0
DICTIONARY
  5
D
330
C
100
AcDbDictionary
281
    1
  0
ENDSEC
  0
EOF
